<?xml version="1.0" standalone="no"?>
<!DOCTYPE svg PUBLIC "-//W3C//DTD SVG 20010904//EN"
 "http://www.w3.org/TR/2001/REC-SVG-20010904/DTD/svg10.dtd">
<svg version="1.0" xmlns="http://www.w3.org/2000/svg"
 width="580.000000pt" height="386.000000pt" viewBox="0 0 580.000000 386.000000"
 preserveAspectRatio="xMidYMid meet">

<g transform="translate(0.000000,386.000000) scale(0.100000,-0.100000)"
fill="#000000" stroke="none">
<path d="M2745 3787 c-46 -26 -75 -75 -75 -128 0 -34 -3 -37 -36 -43 -38 -8
-74 -37 -74 -61 0 -8 7 -15 15 -15 8 0 15 6 15 14 0 18 38 46 61 46 13 0 17
-15 22 -75 8 -87 25 -136 58 -159 35 -24 68 -20 98 13 l26 28 32 -25 c46 -34
114 -41 141 -14 40 40 53 136 28 196 -16 38 -55 56 -118 56 -47 0 -97 -43 -99
-84 -2 -32 -2 -31 -18 -88 -7 -27 -17 -48 -21 -48 -9 0 -20 86 -20 156 0 51 0
51 43 68 50 19 77 58 77 110 0 74 -74 99 -155 53z m100 -45 c3 -16 2 -39 -3
-53 -10 -26 -49 -65 -57 -57 -5 5 13 117 22 131 10 17 32 5 38 -21z m165 -181
c25 -48 1 -171 -34 -171 -17 0 -36 51 -36 94 0 33 33 96 50 96 5 0 14 -9 20
-19z"/>
<path d="M2233 3700 c-43 -26 -63 -68 -63 -132 l0 -53 -31 33 c-16 17 -40 32
-52 32 -90 -1 -157 -51 -157 -118 0 -47 30 -113 76 -169 47 -57 86 -77 138
-70 73 10 101 68 76 156 -5 19 -8 36 -6 38 1 2 19 -23 39 -55 47 -77 59 -87
87 -72 18 10 21 17 16 43 -17 82 -17 95 0 133 l18 39 6 -67 c7 -73 24 -102 66
-112 14 -4 37 -1 52 6 28 14 72 81 72 110 0 29 -24 10 -45 -34 -31 -65 -45
-61 -45 14 0 86 -17 110 -73 106 -36 -3 -45 -8 -66 -41 -25 -38 -25 -38 -37
-15 -27 52 -25 62 12 87 61 42 87 128 45 151 -31 16 -93 12 -128 -10z m87 -20
c23 -23 24 -27 9 -69 -9 -26 -34 -51 -52 -51 -11 0 -17 89 -8 113 12 32 24 34
51 7z m-227 -162 c43 -57 66 -115 72 -175 l6 -58 -31 35 c-41 45 -81 131 -88
186 -6 53 7 57 41 12z"/>
<path d="M3413 3680 c-29 -12 -52 -58 -74 -145 -10 -38 -18 -59 -18 -45 -2 74
-106 124 -180 85 -42 -21 -67 -97 -51 -156 19 -68 113 -124 162 -98 32 17 45
37 58 88 17 69 21 42 6 -45 -10 -54 -11 -83 -4 -91 15 -19 55 -16 67 5 9 16
10 16 16 0 11 -27 69 -58 110 -58 29 0 44 7 71 34 33 33 45 66 23 66 -6 0 -25
-16 -43 -35 -41 -43 -61 -44 -86 -2 -27 43 -26 47 15 47 71 0 135 52 121 97
-9 28 -67 57 -99 49 -14 -3 -40 -18 -58 -33 -25 -21 -31 -24 -26 -10 4 10 7
21 7 23 0 2 17 11 38 20 62 24 102 93 88 149 -12 48 -88 77 -143 55z m91 -46
c18 -47 -17 -134 -57 -142 -14 -3 -15 1 -7 25 4 15 16 52 25 81 17 53 28 64
39 36z m-240 -100 c20 -51 -1 -142 -39 -174 -23 -19 -35 2 -35 63 0 49 10 77
38 110 19 21 28 22 36 1z m266 -103 c0 -45 -77 -98 -104 -71 -8 9 0 22 33 51
48 43 71 49 71 20z"/>
<path d="M1733 3340 c-25 -15 -33 -27 -33 -49 0 -17 4 -32 10 -36 5 -3 7 -12
4 -19 -3 -7 4 -23 14 -36 15 -18 24 -22 46 -16 28 7 28 7 10 27 -18 20 -18 21
0 34 36 27 66 -10 66 -81 l0 -34 -67 0 c-60 0 -98 -5 -220 -27 -28 -5 -31 -3
-27 14 6 23 -17 46 -39 37 -22 -8 -30 -34 -11 -34 8 0 12 -4 9 -10 -9 -15 -41
-12 -56 6 -14 17 -2 49 19 49 24 0 23 15 -1 26 -21 10 -30 9 -43 -2 -9 -7 -26
-18 -38 -24 -41 -20 -30 -87 17 -104 16 -6 9 -13 -38 -36 -71 -36 -138 -95
-155 -135 -7 -16 -16 -30 -20 -30 -5 0 -6 -9 -3 -21 7 -25 -15 -43 -34 -27
-19 15 -25 5 -17 -27 8 -31 30 -43 54 -27 15 9 20 6 30 -19 17 -40 73 -87 114
-94 43 -9 103 10 116 36 6 10 17 19 24 19 28 0 153 71 203 115 l52 46 -6 -34
c-5 -36 15 -67 43 -67 9 0 22 -7 30 -15 20 -20 42 -9 37 18 -8 41 55 97 137
122 25 8 25 8 6 -14 -27 -30 -23 -81 9 -108 49 -42 115 -20 115 39 0 47 -62
77 -90 43 -16 -20 -8 -51 13 -47 19 3 23 -14 5 -21 -23 -8 -48 13 -48 39 0 63
95 99 141 53 l22 -22 -7 27 c-6 25 -5 27 16 21 13 -4 43 -18 66 -32 45 -26 77
-78 66 -107 -8 -21 -34 -21 -34 0 0 21 -24 12 -28 -10 -5 -22 16 -46 39 -46
23 0 49 37 49 70 0 45 -52 132 -116 196 -65 66 -191 136 -267 150 l-38 6 7 45
c9 63 -11 127 -53 163 -40 35 -57 37 -100 10z m-97 -256 c-99 -27 -198 -76
-226 -111 -14 -17 -17 -34 -13 -66 3 -23 10 -48 16 -54 13 -17 49 -16 73 2 10
8 29 15 41 15 19 0 22 4 17 29 -12 60 101 148 221 170 32 6 61 9 64 6 3 -3 -6
-26 -19 -50 -23 -42 -25 -43 -42 -28 -17 15 -20 15 -41 -5 -13 -12 -33 -22
-45 -22 -28 0 -43 -27 -29 -57 17 -37 -34 -107 -112 -154 -68 -41 -92 -49 -71
-24 6 8 9 23 5 35 -7 22 -40 44 -55 35 -5 -3 -11 -1 -15 5 -9 15 -48 13 -42
-2 14 -41 -55 -72 -98 -44 -40 26 -58 71 -45 111 13 38 46 85 62 85 5 0 -2
-14 -16 -31 -19 -22 -24 -35 -16 -44 5 -6 7 -14 4 -18 -3 -3 -3 -15 1 -26 9
-29 43 -27 55 3 5 13 18 27 30 31 17 5 20 12 15 33 -8 41 24 91 81 123 54 31
211 78 259 78 17 0 -8 -11 -59 -25z m333 -20 c38 -8 88 -28 112 -43 57 -36
139 -110 139 -124 0 -6 -10 -1 -22 11 -35 32 -120 71 -179 82 -58 11 -151 -8
-166 -34 -8 -14 -83 -50 -83 -39 0 3 13 22 29 42 15 20 38 55 50 79 24 47 26
48 120 26z"/>
<path d="M3814 3341 c-43 -26 -68 -93 -62 -164 l4 -53 -48 -12 c-93 -22 -179
-71 -254 -146 -80 -80 -114 -137 -114 -194 0 -41 23 -72 52 -72 21 0 40 25 36
46 -4 23 -28 30 -28 9 0 -27 -35 -13 -38 16 -5 45 54 98 138 124 22 7 23 6 11
-9 -20 -23 -7 -31 21 -12 35 25 76 20 109 -13 16 -16 29 -36 29 -45 0 -17 -39
-48 -52 -40 -14 9 -9 26 6 21 21 -8 27 17 10 42 -17 23 -56 28 -72 8 -59 -71
35 -147 102 -81 30 30 34 69 10 102 -18 25 -15 26 23 10 80 -35 130 -87 117
-122 -8 -21 15 -30 34 -13 9 8 27 18 40 21 29 10 44 39 36 73 -7 26 -4 25 47
-21 30 -27 91 -67 137 -89 45 -22 82 -43 82 -47 0 -10 75 -40 101 -40 42 0 92
34 122 82 21 33 34 45 41 38 17 -17 46 -12 46 8 0 10 5 23 11 29 15 15 -8 28
-25 14 -15 -13 -26 -5 -26 20 0 29 -38 91 -76 125 -19 17 -62 46 -96 64 l-61
33 27 16 c27 16 42 50 33 75 -3 7 -24 23 -47 35 -31 16 -45 19 -60 11 -24 -13
-26 -28 -4 -26 25 2 41 -29 25 -48 -15 -18 -61 -22 -61 -5 0 5 5 7 10 4 6 -3
10 1 10 9 0 18 -29 35 -47 29 -7 -3 -13 -16 -13 -29 0 -28 6 -27 -95 -9 -44 8
-110 14 -147 15 l-68 0 0 48 c0 54 24 88 54 76 18 -7 21 -35 5 -51 -8 -8 -5
-13 10 -18 31 -10 61 11 61 43 0 16 5 33 11 39 18 18 3 57 -30 76 -37 22 -49
21 -87 -2z m274 -265 c101 -31 133 -47 167 -87 20 -25 26 -41 23 -67 -3 -28 0
-36 18 -44 12 -6 25 -19 27 -29 6 -22 35 -36 46 -23 5 5 11 26 14 46 5 31 1
44 -21 70 l-26 33 31 -29 c41 -37 57 -77 49 -119 -7 -39 -29 -63 -69 -72 -34
-9 -77 17 -77 45 0 21 -24 27 -35 9 -4 -6 -13 -8 -20 -5 -7 2 -23 -2 -35 -11
-17 -12 -21 -22 -16 -44 l6 -29 -49 24 c-98 50 -148 112 -137 169 6 32 -7 57
-31 57 -7 0 -27 10 -44 22 -30 22 -31 22 -44 4 -13 -17 -16 -14 -40 34 l-27
53 39 -7 c83 -15 142 -37 186 -71 57 -44 82 -87 67 -115 -9 -17 -8 -20 12 -20
13 -1 34 -7 48 -15 58 -33 90 -10 90 62 0 30 -7 46 -27 65 -40 38 -140 85
-230 108 -69 18 -72 20 -27 15 29 -3 88 -16 132 -29z m-307 -23 c5 -15 27 -53
49 -84 l38 -56 -34 12 c-19 6 -44 21 -56 33 -66 61 -218 41 -335 -44 -33 -24
-31 -20 16 28 60 63 132 106 206 124 83 20 104 18 116 -13z"/>
<path d="M3590 3245 c-18 -21 -5 -47 22 -43 26 3 37 36 16 49 -18 12 -24 11
-38 -6z"/>
<path d="M2884 3070 c-18 -7 -19 -14 -15 -56 4 -35 11 -50 23 -52 17 -3 22 7
32 69 7 40 -5 52 -40 39z"/>
<path d="M3030 3069 c-47 -10 -70 -41 -70 -96 0 -52 29 -86 99 -118 32 -14 41
-23 39 -39 -4 -26 -55 -36 -64 -12 -7 18 -69 22 -79 6 -8 -13 22 -67 44 -80
11 -5 41 -10 66 -10 62 0 105 39 105 97 0 45 -28 77 -97 112 -47 24 -57 53
-23 71 16 8 23 7 37 -10 18 -21 67 -27 78 -10 3 5 -1 25 -9 44 -10 25 -23 37
-43 41 -15 4 -32 8 -38 9 -5 1 -26 -1 -45 -5z"/>
<path d="M2499 3068 c-4 -12 -5 -281 -1 -311 4 -36 7 -38 36 -35 l31 3 0 170
0 170 -32 3 c-18 2 -33 2 -34 0z"/>
<path d="M2602 3038 c3 -29 7 -34 38 -38 l35 -5 5 -135 5 -135 33 -3 32 -3 0
125 c0 68 3 131 6 140 4 11 19 16 46 16 38 0 39 1 36 33 l-3 32 -118 3 -118 3
3 -33z"/>
<path d="M2125 2770 c-4 -7 -3 -16 3 -22 14 -14 45 -2 40 15 -6 16 -34 21 -43
7z"/>
<path d="M3472 2763 c2 -10 10 -18 18 -18 8 0 16 8 18 18 2 12 -3 17 -18 17
-15 0 -20 -5 -18 -17z"/>
<path d="M1645 2760 c-4 -7 -3 -16 3 -22 14 -14 45 -2 40 15 -6 16 -34 21 -43
7z"/>
<path d="M3955 2760 c-8 -14 3 -30 21 -30 8 0 14 9 14 20 0 21 -24 28 -35 10z"/>
<path d="M1201 2641 c-15 -10 -8 -41 9 -41 15 0 25 29 14 40 -5 5 -15 5 -23 1z"/>
<path d="M4410 2635 c-20 -24 4 -45 26 -24 13 14 13 17 1 27 -11 10 -17 9 -27
-3z"/>
<path d="M1600 2547 c0 -6 13 -31 29 -55 32 -46 69 -138 132 -323 43 -127 47
-159 24 -203 -8 -15 -15 -32 -15 -37 0 -12 337 -12 344 0 3 5 -1 22 -9 37 -8
16 -15 45 -15 65 0 47 44 164 61 164 14 0 59 -133 59 -175 0 -14 -7 -38 -15
-54 -8 -15 -15 -32 -15 -37 0 -10 333 -13 342 -3 4 3 0 21 -8 39 -8 19 -14 48
-14 64 0 50 127 400 167 458 19 29 32 56 29 61 -5 8 -274 7 -283 -2 -2 -2 6
-23 18 -46 l22 -42 -37 -121 c-47 -150 -53 -167 -66 -167 -5 0 -12 12 -16 28
-3 15 -22 76 -41 136 -35 111 -37 152 -7 177 22 18 16 37 -13 42 -16 2 -81 5
-146 6 -99 2 -118 -1 -123 -14 -4 -9 0 -23 8 -33 8 -9 18 -25 21 -34 9 -25
-73 -308 -90 -308 -7 0 -13 1 -13 3 0 2 -18 64 -41 138 -42 139 -44 176 -12
211 9 10 13 21 9 25 -3 4 -69 8 -146 10 -107 2 -140 0 -140 -10z"/>
<path d="M2724 2549 c-3 -5 8 -28 25 -51 l31 -42 0 -216 0 -217 -31 -43 c-25
-34 -28 -44 -17 -51 19 -13 280 -7 285 7 2 6 -10 28 -27 49 l-31 39 3 222 3
223 28 28 c53 57 44 62 -118 61 -80 0 -148 -4 -151 -9z"/>
<path d="M3060 2550 c0 -5 14 -31 30 -57 l30 -47 0 -210 -1 -211 -29 -39 c-50
-65 -48 -66 120 -66 90 0 150 4 150 10 0 5 -13 31 -30 57 -27 43 -30 54 -30
135 0 64 3 88 13 88 7 0 39 -48 71 -107 54 -98 58 -110 48 -137 -6 -16 -9 -33
-6 -37 3 -5 70 -9 150 -9 161 0 161 0 117 65 -24 35 -28 51 -30 130 -2 50 0
150 3 223 6 121 8 136 30 161 47 57 40 60 -121 57 -80 -2 -148 -6 -151 -8 -2
-3 9 -28 26 -56 28 -45 32 -58 32 -128 0 -101 0 -104 -11 -104 -5 0 -37 50
-71 111 -59 104 -62 114 -52 142 6 16 9 34 6 38 -7 12 -294 11 -294 -1z"/>
<path d="M3760 2547 c0 -7 12 -30 28 -52 l27 -40 0 -216 0 -216 -27 -36 c-53
-68 -56 -67 206 -67 175 0 236 3 244 13 15 18 50 217 40 224 -6 3 -31 -6 -56
-20 -35 -18 -67 -26 -124 -29 -87 -6 -101 -1 -96 33 3 22 9 25 63 29 l60 5 0
65 0 65 -55 3 c-57 3 -84 21 -73 48 4 10 26 14 89 14 71 0 93 -4 135 -25 44
-23 77 -26 65 -7 -2 4 -11 49 -20 101 -9 52 -22 101 -28 108 -15 19 -478 19
-478 0z"/>
<path d="M1239 2389 c-32 -19 -69 -64 -69 -84 0 -4 13 -19 29 -34 31 -29 77
-128 94 -203 9 -39 8 -57 -6 -101 -22 -70 -21 -131 2 -198 45 -126 201 -476
224 -501 30 -33 74 -37 158 -12 124 37 209 100 209 154 0 18 -48 148 -107 292
-116 281 -141 321 -222 362 -25 13 -58 37 -74 53 -36 39 -96 183 -90 217 3 15
-2 37 -11 51 -13 20 -25 25 -59 25 -24 0 -57 -9 -78 -21z m61 -9 c-13 -9 -13
-10 0 -11 8 0 -2 -8 -22 -18 -21 -10 -47 -26 -58 -36 -16 -15 -20 -15 -20 -3
0 18 37 54 70 67 32 13 49 13 30 1z m-27 -70 c-29 -17 -55 -30 -58 -30 -15 0
9 22 43 40 59 31 72 23 15 -10z m191 -214 c20 -20 54 -45 75 -55 39 -20 101
-83 101 -102 0 -6 -16 3 -36 20 -19 17 -39 29 -44 26 -5 -3 -29 0 -54 6 -42
10 -50 9 -113 -20 -64 -29 -66 -30 -38 -6 17 14 33 25 36 25 4 0 12 13 18 28
13 32 6 78 -29 174 -30 86 -23 92 15 12 18 -40 50 -88 69 -108z m225 -398 c39
-92 71 -172 71 -177 0 -15 -77 -56 -152 -81 -66 -21 -88 -20 -88 2 0 6 -34 84
-75 173 -41 88 -75 165 -75 171 0 5 33 22 73 37 39 16 92 39 117 51 39 19 46
20 52 7 3 -9 38 -91 77 -183z"/>
<path d="M4576 2278 c-2 -7 -14 -44 -26 -81 -12 -38 -20 -71 -17 -73 6 -6 85
108 87 126 5 30 0 40 -20 40 -11 0 -22 -6 -24 -12z"/>
<path d="M4384 2256 c-3 -8 -4 -27 -2 -43 l3 -28 18 33 c17 32 16 52 -4 52 -5
0 -12 -6 -15 -14z"/>
<path d="M4749 2131 c-124 -99 -134 -109 -127 -117 4 -4 32 9 61 28 30 20 77
48 105 62 56 29 78 56 60 74 -7 7 -15 12 -19 12 -3 0 -40 -27 -80 -59z"/>
<path d="M4395 1981 c-35 -15 -113 -107 -124 -147 -14 -52 -14 -56 9 -121 l20
-56 -31 -57 c-16 -31 -44 -73 -60 -93 -30 -36 -31 -37 -88 -30 -53 5 -60 3
-70 -15 -9 -18 -6 -26 19 -56 45 -51 178 -127 215 -124 26 3 30 7 33 37 2 23
-3 43 -17 62 -12 16 -21 32 -21 37 0 5 29 47 63 93 62 82 65 84 109 86 56 3
86 14 127 48 69 59 92 154 52 218 -48 78 -177 143 -236 118z m103 -50 c40 -20
112 -86 112 -101 0 -9 -84 23 -123 47 -22 13 -77 61 -77 67 0 13 53 5 88 -13z
m28 -112 c35 -16 70 -29 79 -29 19 0 19 -2 0 -48 -29 -68 -90 -112 -157 -112
-130 0 -196 163 -106 265 l30 35 45 -41 c25 -23 74 -54 109 -70z m-173 -201
c15 -12 10 -21 -43 -91 -32 -43 -63 -92 -69 -108 -9 -26 -13 -29 -30 -19 -31
16 -32 25 -4 51 29 27 113 152 113 168 0 15 12 14 33 -1z m-193 -187 c12 -24
76 -64 89 -56 6 3 17 -8 26 -25 14 -28 14 -30 -2 -30 -22 0 -143 74 -173 105
l-23 25 36 0 c25 0 39 -6 47 -19z"/>
<path d="M4330 1845 c-14 -38 -12 -82 5 -119 33 -69 128 -88 198 -39 l39 27
-45 13 c-24 7 -50 20 -57 28 -11 13 -9 13 23 0 20 -8 44 -15 54 -15 25 0 -38
44 -130 91 l-77 39 -10 -25z"/>
<path d="M4122 1429 c2 -7 10 -15 17 -17 8 -3 12 1 9 9 -2 7 -10 15 -17 17 -8
3 -12 -1 -9 -9z"/>
<path d="M4235 1350 c3 -5 8 -10 11 -10 2 0 4 5 4 10 0 6 -5 10 -11 10 -5 0
-7 -4 -4 -10z"/>
<path d="M4813 1949 c-51 -23 -93 -46 -93 -51 0 -5 8 -7 18 -5 9 3 49 13 87
22 141 33 146 35 143 53 -6 31 -58 24 -155 -19z"/>
<path d="M4826 1811 c-16 -3 -31 -12 -34 -20 -4 -11 5 -13 43 -8 26 4 54 7 61
7 8 0 14 7 14 15 0 16 -30 18 -84 6z"/>
<path d="M2880 1769 c-79 -32 -123 -97 -135 -203 l-8 -58 -47 6 c-36 5 -49 3
-53 -8 -3 -8 -15 -12 -30 -9 -70 14 -155 -46 -176 -124 -17 -59 -13 -95 15
-151 60 -120 211 -139 258 -33 37 81 -8 98 -51 19 -49 -91 -68 -73 -76 73 -4
88 6 155 28 177 9 9 25 -19 25 -45 0 -18 6 -23 24 -23 20 0 25 6 30 44 5 31
12 45 26 49 10 3 21 2 24 -1 3 -3 6 -62 6 -132 0 -111 3 -131 23 -170 37 -76
114 -94 168 -41 16 16 29 37 29 45 0 22 2 21 43 -18 59 -56 164 -67 205 -22
58 62 54 251 -7 317 -36 41 -123 58 -172 35 -51 -24 -78 -71 -89 -157 -11 -85
-38 -172 -51 -163 -5 3 -9 74 -9 157 l0 152 49 22 c58 25 80 60 88 137 11 102
-52 159 -137 125z m74 -87 c12 -41 -8 -113 -40 -143 -13 -12 -27 -20 -30 -16
-9 9 16 169 29 185 15 19 31 9 41 -26z m221 -307 c19 -74 18 -98 -3 -155 -31
-80 -79 -47 -90 62 -6 60 3 105 29 147 17 29 22 32 34 20 8 -8 21 -41 30 -74z"/>
<path d="M3620 1718 c-62 -43 -81 -161 -57 -353 9 -66 19 -153 23 -193 6 -64
10 -75 30 -84 30 -14 74 4 81 31 5 19 6 19 36 1 54 -32 106 -34 157 -8 49 25
74 64 85 136 6 40 5 42 -18 42 -21 0 -25 -6 -30 -42 -3 -23 -14 -53 -25 -67
-28 -38 -58 -38 -98 0 -19 18 -34 36 -34 39 0 3 18 14 40 24 108 47 148 187
64 222 -63 27 -116 -2 -160 -86 l-19 -35 -3 29 c-3 23 2 34 22 49 58 42 91
165 66 241 -13 42 -59 76 -101 76 -14 0 -41 -10 -59 -22z m100 -68 c30 -60 22
-141 -20 -192 l-19 -23 -1 128 c0 76 4 127 10 127 5 0 19 -18 30 -40z m100
-279 c0 -61 -73 -142 -103 -112 -13 13 27 112 60 147 29 32 43 21 43 -35z"/>
<path d="M2317 1683 c-3 -5 -4 -46 -2 -93 2 -77 4 -85 22 -88 58 -9 74 144 19
180 -14 10 -34 10 -39 1z"/>
<path d="M3487 1506 c-3 -8 -15 -12 -30 -9 -13 3 -42 0 -64 -6 -118 -32 -158
-207 -71 -307 45 -51 82 -67 140 -62 55 6 83 26 99 75 24 75 -19 86 -56 14
-30 -60 -44 -70 -62 -46 -17 24 -18 233 -1 270 14 32 31 27 38 -11 6 -31 37
-45 51 -22 5 7 9 37 9 66 0 48 -2 52 -24 52 -13 0 -26 -6 -29 -14z"/>
<path d="M2031 1488 c-56 -37 -76 -82 -76 -163 1 -127 72 -206 186 -208 88 -1
125 62 117 203 -5 86 -32 150 -72 168 -14 6 -47 14 -73 17 -40 6 -54 3 -82
-17z m143 -69 c29 -71 31 -149 8 -202 -12 -27 -28 -47 -36 -47 -23 0 -45 51
-52 119 -6 50 -3 67 19 115 14 31 30 56 35 56 6 0 17 -18 26 -41z"/>
<path d="M1862 1284 c-84 -42 -156 -115 -199 -202 -38 -75 -38 -77 -38 -196 0
-112 2 -125 27 -172 59 -113 189 -191 301 -181 119 11 213 82 243 185 20 67
12 114 -29 184 -51 85 -141 118 -237 85 -96 -33 -107 -188 -15 -237 31 -17 32
-38 3 -42 -30 -4 -35 -34 -8 -43 27 -9 60 19 60 50 0 13 -7 39 -15 58 -20 49
-19 64 10 92 46 47 121 24 149 -47 30 -74 -3 -155 -77 -188 -47 -22 -148 -27
-194 -9 -153 57 -228 258 -162 434 28 75 101 150 184 190 33 16 62 30 63 31 2
1 0 10 -5 18 -8 14 -15 13 -61 -10z"/>
<path d="M4030 1275 c0 -26 10 -49 39 -85 80 -102 127 -237 119 -344 -8 -90
-40 -157 -109 -220 -77 -72 -145 -98 -269 -103 -250 -12 -457 97 -787 411 -61
58 -119 106 -130 106 -13 -1 -4 -13 33 -48 213 -195 270 -245 338 -296 260
-196 545 -253 754 -150 275 134 328 461 111 683 -32 33 -67 65 -78 71 -19 10
-21 8 -21 -25z"/>
<path d="M2538 1006 c-43 -53 -94 -154 -122 -238 -36 -105 -36 -238 -3 -331
49 -134 123 -229 216 -274 50 -25 67 -28 161 -28 98 0 109 2 159 30 93 52 141
133 141 242 0 121 -82 213 -204 229 -61 9 -147 -30 -172 -77 -22 -43 -21 -101
0 -135 37 -56 130 -67 162 -19 22 34 14 57 -29 80 -37 20 -38 20 -52 1 -16
-22 -4 -56 20 -56 21 0 19 -20 -2 -21 -36 -3 -48 3 -72 28 -19 22 -22 34 -18
66 8 57 43 89 105 95 122 11 217 -96 197 -225 -5 -38 -16 -55 -58 -97 -172
-171 -453 -64 -521 199 -44 166 0 352 120 508 41 53 42 57 21 57 -13 0 -33
-13 -49 -34z"/>
<path d="M2680 1037 c0 -7 332 -292 393 -337 188 -140 390 -222 542 -219 l60
1 -51 8 c-75 11 -179 46 -259 88 -122 64 -216 141 -467 379 l-87 83 -66 0
c-36 0 -65 -2 -65 -3z"/>
</g>
</svg>
